<svg xmlns="http://www.w3.org/2000/svg" viewBox="0 0 35 35"><defs><style>.cls-1{fill:#e6bb00;}.cls-2{fill:#1d1e26;}</style></defs><title>test</title><g id="Layer_1" data-name="Layer 1"><rect class="cls-1" width="35" height="35"/></g><g id="Layer_2" data-name="Layer 2"><path class="cls-2" d="M9.2,26.58c0-3.26-.89-4.46-4.66-4.46H0V35H9.81c-.5-1.47-.61-3.62-.61-7.24Z" transform="translate(0 0)"/><path class="cls-2" d="M6,7.55H0v7.3H6c2.64,0,4.12-1.13,4.12-3.65C10.08,8.87,8.72,7.55,6,7.55Z" transform="translate(0 0)"/><path class="cls-2" d="M20.29,0c-.14,0-.28,0-.42,0V0H8.55C16,0,19.87,4.25,19.87,10.05c0,4.51-2.23,7.2-5.16,8.38,1.61.81,4.36,2.49,4.36,8.43v1.89A30.62,30.62,0,0,0,19.49,35h.38v0l.42,0C28.41,35,35,27.16,35,17.5S28.41,0,20.29,0Z" transform="translate(0 0)"/></g></svg>