<svg id="Layer_1" data-name="Layer 1" xmlns="http://www.w3.org/2000/svg" viewBox="0 0 41 41"><defs><style>.cls-1{fill:#e6bb00;}.cls-2{fill:none;stroke:#e6b400;stroke-miterlimit:10;stroke-width:4px;}</style></defs><title>logo</title><path class="cls-1" d="M12.2,29.58c0-3.26-.89-4.46-4.66-4.46H3V38h9.81c-.5-1.47-.61-3.62-.61-7.24Z"/><path class="cls-1" d="M9,10.55H3v7.3H9c2.64,0,4.12-1.13,4.12-3.65C13.08,11.87,11.72,10.55,9,10.55Z"/><path class="cls-1" d="M23.29,3c-.14,0-.28,0-.42,0V3H11.55C19,3,22.87,7.25,22.87,13.05c0,4.51-2.23,7.2-5.16,8.38,1.61.81,4.36,2.49,4.36,8.43v1.89A30.62,30.62,0,0,0,22.49,38h.38v0l.42,0C31.41,38,38,30.16,38,20.5S31.41,3,23.29,3Z"/><rect class="cls-2" x="2" y="2" width="37" height="37"/></svg>